<?xml version="1.0" encoding="UTF-8" standalone="no"?>
<!-- Generated by IcoMoon.io -->

<svg
        xmlns:dc="http://purl.org/dc/elements/1.1/"
        xmlns:cc="http://creativecommons.org/ns#"
        xmlns:rdf="http://www.w3.org/1999/02/22-rdf-syntax-ns#"
        xmlns:sodipodi="http://sodipodi.sourceforge.net/DTD/sodipodi-0.dtd"
        xmlns:inkscape="http://www.inkscape.org/namespaces/inkscape"
        xmlns="http://www.w3.org/2000/svg"
        version="1.1"
        width="80"
        height="80"
        viewBox="0 0 80 80"
        id="svg8"
        sodipodi:docname="picture.svg"
        inkscape:version="0.92.2 (5c3e80d, 2017-08-06)">
    <metadata
            id="metadata14">
        <rdf:RDF>
            <cc:Work
                    rdf:about="">
                <dc:format>image/svg+xml</dc:format>
                <dc:type
                        rdf:resource="http://purl.org/dc/dcmitype/StillImage"/>
                <dc:title></dc:title>
            </cc:Work>
        </rdf:RDF>
    </metadata>
    <defs
            id="defs12"/>
    <sodipodi:namedview
            pagecolor="#ffffff"
            bordercolor="#666666"
            borderopacity="1"
            objecttolerance="10"
            gridtolerance="10"
            guidetolerance="10"
            inkscape:pageopacity="0"
            inkscape:pageshadow="2"
            inkscape:window-width="2560"
            inkscape:window-height="1377"
            id="namedview10"
            showgrid="false"
            inkscape:zoom="11.8"
            inkscape:cx="25.59322"
            inkscape:cy="32.881356"
            inkscape:window-x="-8"
            inkscape:window-y="-8"
            inkscape:window-maximized="1"
            inkscape:current-layer="svg8"/>
    <path
            d="m 47.991526,50 h -17 c -0.827,0 -1.5,-0.673 -1.5,-1.5 v -17 c 0,-0.827 0.673,-1.5 1.5,-1.5 h 17 c 0.827,0 1.5,0.673 1.5,1.5 v 17 c 0,0.827 -0.673,1.5 -1.5,1.5 z m -17,-19 c -0.276,0 -0.5,0.224 -0.5,0.5 v 17 c 0,0.276 0.224,0.5 0.5,0.5 h 17 c 0.276,0 0.5,-0.224 0.5,-0.5 v -17 c 0,-0.276 -0.224,-0.5 -0.5,-0.5 z"
            id="path2"
            inkscape:connector-curvature="0"
            style="fill:#e6e6e6"/>
    <path
            d="m 42.491526,39 c -1.103,0 -2,-0.897 -2,-2 0,-1.103 0.897,-2 2,-2 1.103,0 2,0.897 2,2 0,1.103 -0.897,2 -2,2 z m 0,-3 c -0.551,0 -1,0.449 -1,1 0,0.551 0.449,1 1,1 0.551,0 1,-0.449 1,-1 0,-0.551 -0.449,-1 -1,-1 z"
            id="path4"
            inkscape:connector-curvature="0"
            style="fill:#e6e6e6"/>
    <path
            d="m 46.991526,32 h -15 c -0.276,0 -0.5,0.224 -0.5,0.5 v 12 c 0,0.276 0.224,0.5 0.5,0.5 h 15 c 0.276,0 0.5,-0.224 0.5,-0.5 v -12 c 0,-0.276 -0.224,-0.5 -0.5,-0.5 z m -14.5,9.69 3.209,-3.611 c 0.082,-0.092 0.189,-0.144 0.302,-0.145 0.113,-10e-4 0.221,0.048 0.305,0.138 l 5.533,5.928 h -9.349 z m 14,2.31 h -3.283 l -6.169,-6.61 c -0.279,-0.299 -0.651,-0.461 -1.049,-0.456 -0.398,0.005 -0.766,0.176 -1.037,0.481 l -2.462,2.77 V 33 h 14 z"
            id="path6"
            inkscape:connector-curvature="0"
            style="fill:#e6e6e6"/>
</svg>
